<?xml version="1.0" encoding="UTF-8"?>
<svg version="1.1" xmlns="http://www.w3.org/2000/svg" width="512" height="512">
<path d="M0 0 C1.1826947 -0.00101212 1.1826947 -0.00101212 2.38928223 -0.00204468 C73.64695097 0.09409405 136.36255618 28.37728973 186.75 78 C190.63418045 81.94739496 194.3317948 85.99400157 197.875 90.25 C198.52275391 91.02706299 198.52275391 91.02706299 199.18359375 91.81982422 C211.20307756 106.31893731 221.12963483 121.57592983 229.875 138.25 C230.44516846 139.32314453 230.44516846 139.32314453 231.02685547 140.41796875 C249.58622985 175.78142744 257.5135524 216.20839182 257.21118164 255.88354492 C257.18753671 259.18237864 257.19066245 262.48039917 257.19726562 265.77929688 C257.15454237 298.89335298 253.56896743 332.06608684 241.875 363.25 C82.485 363.25 -76.905 363.25 -241.125 363.25 C-248.10903442 341.13389101 -248.10903442 341.13389101 -249.8125 333 C-250.0919043 331.77216797 -250.0919043 331.77216797 -250.37695312 330.51953125 C-251.03951589 327.439632 -251.59485384 324.35571009 -252.125 321.25 C-252.25241577 320.51022919 -252.37983154 319.77045837 -252.5111084 319.00827026 C-255.2204269 302.72043057 -255.59628923 286.52886884 -255.51611328 270.06225586 C-255.49903867 266.52516858 -255.50918811 262.98875954 -255.52643013 259.45169544 C-255.61352342 238.39330959 -254.74399272 217.44775215 -249.5 196.9375 C-249.24549072 195.92155762 -248.99098145 194.90561523 -248.72875977 193.85888672 C-238.39293037 153.85296743 -220.60335251 117.08245654 -192.38671875 86.6953125 C-190.4345112 84.5846356 -188.55193722 82.43772443 -186.6875 80.25 C-178.9118918 71.34538077 -170.39786905 63.56153932 -161.125 56.25 C-160.0781128 55.39092204 -159.03258653 54.53018348 -157.98828125 53.66796875 C-113.61730797 17.39541883 -56.83149451 0.04408902 0 0 Z " fill="#32475B" transform="translate(255.125,84.75)"/>
<path d="M0 0 C-1.64869688 9.54045925 -11.85950653 18.4603669 -18.05859375 25.59375 C-20.59647454 28.51749308 -23.0624274 31.49174343 -25.5 34.5 C-28.93208013 38.7279248 -32.44551171 42.8752789 -36 47 C-40.31934272 52.01314773 -44.55097277 57.08537515 -48.72265625 62.22265625 C-51.28204054 65.34396367 -53.88593791 68.4245003 -56.5 71.5 C-59.87283589 75.46903543 -63.21176645 79.46017021 -66.5 83.5 C-70.24787798 88.1045358 -74.06983444 92.64019191 -77.9140625 97.1640625 C-80.81244823 100.5805954 -83.671551 104.02504838 -86.5 107.5 C-90.24787798 112.1045358 -94.06983444 116.64019191 -97.9140625 121.1640625 C-101.55201592 125.45237631 -105.11521191 129.79776049 -108.6640625 134.16015625 C-111.82719112 138.00563202 -115.04907139 141.80007455 -118.28320312 145.5859375 C-121.8250968 149.65418404 -121.8250968 149.65418404 -125 154 C-124.75455166 156.01267638 -124.39764263 158.01178687 -124 160 C-122.86769353 172.29361309 -126.48248244 184.20037889 -134 194 C-141.79087561 202.64300263 -152.77306029 208.45300513 -164.50390625 209.1484375 C-168.19351111 209.20342416 -171.43467112 209.14206074 -175.03125 208.23828125 C-178.06042482 207.67408953 -178.06042482 207.67408953 -180.2734375 209.625 C-180.96695313 210.40875 -181.66046875 211.1925 -182.375 212 C-186.37051868 216.32400931 -190.52992604 220.17895519 -195 224 C-195.62003906 224.55945313 -196.24007812 225.11890625 -196.87890625 225.6953125 C-197.47574219 226.22898437 -198.07257813 226.76265625 -198.6875 227.3125 C-199.20699219 227.78300781 -199.72648437 228.25351562 -200.26171875 228.73828125 C-205.87906945 232.81559423 -212.33282258 232.9645409 -219 232 C-224.95080428 229.44714017 -228.97856187 225.6651965 -232 220 C-233.92911204 214.21266387 -234.25490941 207.32684494 -232.08203125 201.56640625 C-227.42890758 194.1295957 -219.56928764 185.84879188 -212.13671875 181.21484375 C-209.69473069 178.6835691 -209.6791317 178.16887317 -209.6171875 174.8046875 C-209.68345385 173.16054757 -209.77036133 171.51714436 -209.875 169.875 C-210.30616449 156.04907888 -206.49294031 145.17601634 -197.01171875 134.8515625 C-190.83520038 129.16676695 -182.02360371 124.10284482 -173.44042969 123.95629883 C-171.65829041 124.07283346 -169.87704001 124.20372303 -168.09692383 124.34790039 C-160.44022934 124.93801301 -154.18169849 125.19574594 -148.02392578 120.17138672 C-145.75757309 118.0408212 -143.59142088 115.84280826 -141.48339844 113.55566406 C-139.31571785 111.28238218 -136.90179333 109.37927841 -134.4375 107.4375 C-128.21510641 102.38123581 -122.10888035 97.19219022 -116 92 C-108.98765442 86.0399173 -101.95039195 80.12241205 -94.8125 74.3125 C-91.1190609 71.2756723 -87.47701514 68.18039045 -83.83374023 65.08374023 C-80.44045891 62.2045468 -77.01732214 59.36795763 -73.5625 56.5625 C-68.69870975 52.60491812 -63.94118769 48.53457554 -59.19165039 44.44165039 C-54.8019965 40.66665609 -50.33885229 36.99271539 -45.84375 33.34375 C-42.52312518 30.6069713 -39.25981586 27.80865312 -36 25 C-6.93754916 0 -6.93754916 0 0 0 Z " fill="#F09B12" transform="translate(423,175)"/>
<path d="M0 0 C-1.64869688 9.54045925 -11.85950653 18.4603669 -18.05859375 25.59375 C-20.59647454 28.51749308 -23.0624274 31.49174343 -25.5 34.5 C-28.93208013 38.7279248 -32.44551171 42.8752789 -36 47 C-40.31934272 52.01314773 -44.55097277 57.08537515 -48.72265625 62.22265625 C-51.28204054 65.34396367 -53.88593791 68.4245003 -56.5 71.5 C-59.87283589 75.46903543 -63.21176645 79.46017021 -66.5 83.5 C-70.24787798 88.1045358 -74.06983444 92.64019191 -77.9140625 97.1640625 C-80.81244823 100.5805954 -83.671551 104.02504838 -86.5 107.5 C-90.24787798 112.1045358 -94.06983444 116.64019191 -97.9140625 121.1640625 C-101.55083364 125.45098267 -105.11317532 129.79468213 -108.66015625 134.15625 C-111.8512285 138.03454816 -115.1040901 141.85935656 -118.37109375 145.67382812 C-120.39966777 148.05327468 -122.26271453 150.39407179 -124 153 C-127 152 -127 152 -128.39453125 149.7421875 C-129.09642578 148.32292969 -129.09642578 148.32292969 -129.8125 146.875 C-135.50287598 136.12032853 -142.55379407 130.34588568 -154 126 C-152.76661202 122.29983605 -151.36179556 121.45296966 -148.3125 119.0625 C-143.79520829 115.45921284 -139.37127637 111.77892676 -135 108 C-130.01133668 103.69942817 -124.9577594 99.49512234 -119.84375 95.34375 C-116.52313406 92.60697862 -113.25956291 89.80893615 -110 87 C-104.98685227 82.68065728 -99.91462485 78.44902723 -94.77734375 74.27734375 C-91.65603733 71.71796028 -88.57546576 69.11410084 -85.5 66.5 C-81.55349519 63.14552873 -77.58357928 59.82778171 -73.5625 56.5625 C-68.69870975 52.60491812 -63.94118769 48.53457554 -59.19165039 44.44165039 C-54.8019965 40.66665609 -50.33885229 36.99271539 -45.84375 33.34375 C-42.52312518 30.6069713 -39.25981586 27.80865312 -36 25 C-6.93754916 0 -6.93754916 0 0 0 Z " fill="#EFC20F" transform="translate(423,175)"/>
<path d="M0 0 C-1.37995726 4.00402107 -3.21466036 6.77001301 -5.9375 10 C-7.14212891 11.43859375 -7.14212891 11.43859375 -8.37109375 12.90625 C-9.24681915 13.93798976 -10.12313641 14.96922741 -11 16 C-11.90780068 17.07270633 -12.81534932 18.14562602 -13.72265625 19.21875 C-15.11770759 20.8676933 -16.51354057 22.51594055 -17.91186523 24.16210938 C-20.81153459 27.57883673 -23.67093614 31.02429297 -26.5 34.5 C-30.24787798 39.1045358 -34.06983444 43.64019191 -37.9140625 48.1640625 C-40.81244823 51.5805954 -43.671551 55.02504838 -46.5 58.5 C-50.24787798 63.1045358 -54.06983444 67.64019191 -57.9140625 72.1640625 C-60.81244823 75.5805954 -63.671551 79.02504838 -66.5 82.5 C-70.24787798 87.1045358 -74.06983444 91.64019191 -77.9140625 96.1640625 C-80.81244823 99.5805954 -83.671551 103.02504838 -86.5 106.5 C-90.24787798 111.1045358 -94.06983444 115.64019191 -97.9140625 120.1640625 C-100.81244823 123.5805954 -103.671551 127.02504838 -106.5 130.5 C-109.96950521 134.75517215 -113.46902039 138.9832986 -117 143.1875 C-117.48146484 143.765 -117.96292969 144.3425 -118.45898438 144.9375 C-119.61686591 146.31091792 -120.805494 147.6583138 -122 149 C-122.33 149 -122.66 149 -123 149 C-126.61180255 136.35869109 -126.61180255 136.35869109 -124.06201172 131.04541016 C-121.34440108 127.15646905 -117.98763752 123.87103312 -114.58789062 120.58007812 C-112.34457897 118.34780367 -110.40074701 115.91663673 -108.4375 113.4375 C-105.17221697 109.41641909 -101.85442156 105.44654838 -98.5 101.5 C-95.12716411 97.53096457 -91.78823355 93.53982979 -88.5 89.5 C-84.75212202 84.8954642 -80.93016556 80.35980809 -77.0859375 75.8359375 C-74.18755177 72.4194046 -71.328449 68.97495162 -68.5 65.5 C-64.75573645 60.89990478 -60.93779126 56.36833905 -57.09692383 51.84912109 C-54.08944588 48.30438597 -51.12462527 44.72853185 -48.1875 41.125 C-47.46046875 40.23554688 -46.7334375 39.34609375 -45.984375 38.4296875 C-44.78291866 36.958613 -43.58419643 35.48529169 -42.390625 34.0078125 C-39.23964836 30.19614722 -35.81740895 26.99723014 -32.046875 23.80078125 C-30.04129492 22.03633007 -28.21732187 20.18286333 -26.375 18.25 C-22.75697896 14.57443588 -18.86053253 11.36997504 -14.8125 8.1875 C-14.21808105 7.71924805 -13.62366211 7.25099609 -13.01123047 6.76855469 C-4.28258456 0 -4.28258456 0 0 0 Z " fill="#2D3F4F" transform="translate(422,196)"/>
<path d="M0 0 C0.36351562 0.78503906 0.72703125 1.57007813 1.1015625 2.37890625 C7.50465816 15.75973436 14.69862522 21.69934879 28 28 C26.58115612 31.25955493 24.87899828 33.32212692 22.296875 35.75 C21.56339844 36.4409375 20.82992187 37.131875 20.07421875 37.84375 C18.92373047 38.91109375 18.92373047 38.91109375 17.75 40 C16.99847656 40.7115625 16.24695313 41.423125 15.47265625 42.15625 C7.72602722 49.4026604 2.09909628 53.50295844 -8.8515625 53.41015625 C-14.5649521 52.66585612 -18.68723885 49.67894833 -22.40625 45.37109375 C-25.56841911 40.86500277 -26.17593661 37.01928333 -26.25 31.625 C-26.27578125 30.50351562 -26.3015625 29.38203125 -26.328125 28.2265625 C-25.89289162 23.94676759 -24.45819164 21.43664201 -21.4140625 18.4375 C-20.82367188 17.963125 -20.23328125 17.48875 -19.625 17 C-14.90998521 13.05029545 -10.65979361 8.68948091 -6.39306641 4.26757812 C-2.2140842 0 -2.2140842 0 0 0 Z " fill="#EFC30F" transform="translate(216,354)"/>
<path d="M0 0 C4.87030039 2.75208078 8.28143655 7.18159083 10.37109375 12.33984375 C11.27160701 19.66960281 10.95048723 26.3411061 6.37109375 32.33984375 C2.16514011 36.80493197 -2.04356037 39.83071392 -8.2421875 40.7109375 C-15.07309862 40.87899175 -19.42483255 39.85792592 -24.62890625 35.33984375 C-29.66081682 30.43629825 -31.91008443 25.54343502 -32.06640625 18.52734375 C-31.93475096 12.56628482 -30.80820533 8.65364901 -26.62890625 4.33984375 C-17.87218085 -2.66860372 -10.56710249 -4.51956743 0 0 Z " fill="#2E3F4F" transform="translate(266.62890625,321.66015625)"/>
<path d="M0 0 C14.19 0 28.38 0 43 0 C43 7.26 43 14.52 43 22 C28.81 22 14.62 22 0 22 C0 14.74 0 7.48 0 0 Z " fill="#E6EBEC" transform="translate(437,341)"/>
<path d="M0 0 C14.19 0 28.38 0 43 0 C43 7.26 43 14.52 43 22 C28.81 22 14.62 22 0 22 C0 14.74 0 7.48 0 0 Z " fill="#E6EBEC" transform="translate(32,341)"/>
<path d="M0 0 C7.26 0 14.52 0 22 0 C22 14.19 22 28.38 22 43 C14.74 43 7.48 43 0 43 C0 28.81 0 14.62 0 0 Z " fill="#E6EBEC" transform="translate(245,128)"/>
<path d="M0 0 C1.53617083 2.57525715 3.05388201 5.158674 4.5625 7.75 C5.00013672 8.47960937 5.43777344 9.20921875 5.88867188 9.9609375 C6.50258789 11.02441406 6.50258789 11.02441406 7.12890625 12.109375 C7.70233765 13.08342285 7.70233765 13.08342285 8.28735352 14.07714844 C9 16 9 16 8.98828125 18.00878906 C7.44357703 21.12109331 5.05782295 22.07460283 2.05859375 23.75 C1.45749283 24.08999023 0.85639191 24.42998047 0.23707581 24.78027344 C-1.68951852 25.86579627 -3.62572746 26.93276441 -5.5625 28 C-6.83983826 28.71760212 -8.1165388 29.43634065 -9.39257812 30.15625 C-15.51709179 33.59724907 -21.67564453 36.93751261 -28 40 C-29.6735337 37.04550087 -31.33763985 34.0857982 -33 31.125 C-33.71542969 29.86236328 -33.71542969 29.86236328 -34.4453125 28.57421875 C-34.89648438 27.76855469 -35.34765625 26.96289062 -35.8125 26.1328125 C-36.23144531 25.38918457 -36.65039062 24.64555664 -37.08203125 23.87939453 C-38 22 -38 22 -38 20 C-36.94256592 19.410979 -36.94256592 19.410979 -35.86376953 18.81005859 C-32.6165818 17.00003733 -29.37078565 15.18753423 -26.125 13.375 C-25.01640625 12.75753906 -23.9078125 12.14007813 -22.765625 11.50390625 C-16.76179578 8.14882521 -10.83172953 4.73132729 -5.01904297 1.05322266 C-3 0 -3 0 0 0 Z " fill="#7D8A8C" transform="translate(445,231)"/>
<path d="M0 0 C4.42750107 0.59466204 7.59033332 2.26338819 11.4375 4.4921875 C12.04005615 4.83879425 12.6426123 5.185401 13.26342773 5.54251099 C15.17948585 6.64680047 17.08972034 7.76075056 19 8.875 C20.28348762 9.61652023 21.56733853 10.35741202 22.8515625 11.09765625 C27.92426673 14.02664855 32.98395382 16.97472634 38 20 C36.34229667 24.49324849 34.15017838 28.61186146 31.875 32.8125 C31.50246094 33.50537109 31.12992188 34.19824219 30.74609375 34.91210938 C29.83309623 36.60934836 28.91687284 38.30485138 28 40 C19.66474408 36.04899723 11.77794139 31.42232505 3.875 26.6875 C2.61998413 25.93913027 1.36477697 25.19108123 0.109375 24.44335938 C-2.92929256 22.63258968 -5.96536576 20.81752299 -9 19 C-7.52510507 14.39448519 -5.71206744 10.36634462 -3.375 6.125 C-2.74335937 4.97257813 -2.11171875 3.82015625 -1.4609375 2.6328125 C-0.97882813 1.76398438 -0.49671875 0.89515625 0 0 Z " fill="#7D8A8C" transform="translate(67,231)"/>
<path d="M0 0 C2.91687906 0.61096791 5.13415334 1.51314558 7.671875 3.06640625 C8.66767578 3.6706543 8.66767578 3.6706543 9.68359375 4.28710938 C10.36550781 4.70798828 11.04742187 5.12886719 11.75 5.5625 C12.44738281 5.98724609 13.14476562 6.41199219 13.86328125 6.84960938 C15.57835717 7.89510086 17.28956473 8.94693351 19 10 C17.65551912 14.43766022 15.8950594 18.27525732 13.62890625 22.31640625 C13.14441261 23.18482399 13.14441261 23.18482399 12.65013123 24.07078552 C11.62569658 25.90407953 10.59415045 27.73325888 9.5625 29.5625 C8.87389556 30.79336625 8.18574051 32.02448402 7.49804688 33.25585938 C4.72632767 38.20834468 1.94202423 43.14596841 -1 48 C-5.05982587 46.60443486 -8.40920629 44.54269597 -11.99609375 42.2421875 C-14.57760329 40.64195351 -17.25819386 39.30235792 -20 38 C-18.6190418 34.36507822 -16.99645834 30.99157486 -15.13671875 27.578125 C-14.57919922 26.55203125 -14.02167969 25.5259375 -13.44726562 24.46875 C-12.86654297 23.4065625 -12.28582031 22.344375 -11.6875 21.25 C-10.83381836 19.67992187 -10.83381836 19.67992187 -9.96289062 18.078125 C-6.6730033 12.03470397 -3.35402185 6.00805734 0 0 Z " fill="#7D8A8C" transform="translate(357,152)"/>
<path d="M0 0 C0.589021 1.10287354 0.589021 1.10287354 1.18994141 2.22802734 C2.67523273 5.0061288 4.16281273 7.78298975 5.65185547 10.55908203 C6.60165439 12.33143637 7.54890652 14.10515479 8.49609375 15.87890625 C11.8158163 22.06407353 15.21698479 28.14788932 18.94677734 34.09619141 C20 36 20 36 20 38 C17.77312024 39.29574871 15.54366825 40.58667308 13.3125 41.875 C12.68666016 42.23980469 12.06082031 42.60460937 11.41601562 42.98046875 C10.80048828 43.33496094 10.18496094 43.68945312 9.55078125 44.0546875 C8.71027222 44.54171143 8.71027222 44.54171143 7.8527832 45.03857422 C5.62667969 46.19371925 3.33864918 47.0982253 1 48 C-2.07617188 42.46289062 -5.15234375 36.92578125 -8.22851562 31.38867188 C-8.56078156 30.79097992 -8.89304749 30.19328796 -9.23538208 29.57748413 C-9.8966022 28.38650923 -10.55650354 27.19480116 -11.21505737 26.00234985 C-12.6601469 23.38886861 -14.12298602 20.79128646 -15.63916016 18.21826172 C-16.10499512 17.42307129 -16.57083008 16.62788086 -17.05078125 15.80859375 C-17.45594971 15.13497803 -17.86111816 14.4613623 -18.27856445 13.76733398 C-19 12 -19 12 -18 9 C-15.63671875 7.5 -15.63671875 7.5 -12.6875 6 C-9.89023564 4.5658885 -7.31441631 3.24473486 -4.83203125 1.3125 C-3 0 -3 0 0 0 Z " fill="#7D8A8C" transform="translate(155,152)"/>
<path d="M0 0 C0.66 0.66 1.32 1.32 2 2 C-0.97 4.97 -3.94 7.94 -7 11 C-7 7.22089522 -6.00296038 6.53893899 -3.5 3.8125 C-2.8503125 3.09707031 -2.200625 2.38164062 -1.53125 1.64453125 C-1.0259375 1.10183594 -0.520625 0.55914062 0 0 Z " fill="#43504E" transform="translate(393,214)"/>
</svg>
